<?xml version="1.0" encoding="utf-8"?>
<!-- Generator: Adobe Illustrator 16.0.4, SVG Export Plug-In . SVG Version: 6.00 Build 0)  -->
<!DOCTYPE svg PUBLIC "-//W3C//DTD SVG 1.1//EN" "http://www.w3.org/Graphics/SVG/1.1/DTD/svg11.dtd">
<svg version="1.1" id="Calque_1" xmlns="http://www.w3.org/2000/svg" xmlns:xlink="http://www.w3.org/1999/xlink" x="0px" y="0px"
	 width="300px" height="200px" viewBox="0 0 300 200" enable-background="new 0 0 300 200" xml:space="preserve">
<g id="Layer_1" sodipodi:docname="Stylized-Cartoon-Horse-unicorn-remix.svg" inkscape:version="0.48.5 r10040" xmlns:inkscape="http://www.inkscape.org/namespaces/inkscape" xmlns:sodipodi="http://sodipodi.sourceforge.net/DTD/sodipodi-0.dtd" xmlns:dc="http://purl.org/dc/elements/1.1/" xmlns:cc="http://creativecommons.org/ns#" xmlns:rdf="http://www.w3.org/1999/02/22-rdf-syntax-ns#" xmlns:svg="http://www.w3.org/2000/svg">
	
		<sodipodi:namedview  fit-margin-bottom="0" inkscape:current-layer="Layer_1" inkscape:window-width="640" inkscape:window-height="480" fit-margin-right="0" inkscape:pageshadow="2" inkscape:pageopacity="0" bordercolor="#666666" borderopacity="1" objecttolerance="10" pagecolor="#ffffff" gridtolerance="10" inkscape:cx="1306.8761" inkscape:cy="823.62701" inkscape:zoom="0.22" fit-margin-left="0" fit-margin-top="0" guidetolerance="10" showgrid="false" id="namedview83">
		</sodipodi:namedview>
	<g id="g6490" transform="translate(-8.1643623e-5,17.977498)">
		<g id="g6285" transform="translate(2186.0625,-3276.7965)">
			<path id="use5343" inkscape:connector-curvature="0" fill="#989380" stroke="#171616" stroke-width="1.9" d="M-2125.859,3306.092
				c-1.914,0.754-3.668,2.085-4.794,3.818c-0.197,0.718,0.559,1.258,1.204,1.298c2.529,0.928,5.586,1.087,7.513,3.19
				c0.19,0.502,0.811,0.764,1.304,0.458c1.718-0.697,3.37-1.501,5.093-2.195c0.039-1.396,0.065-2.796-0.035-4.193
				C-2119.018,3307.76-2122.394,3306.659-2125.859,3306.092z"/>
			<path id="use5345" inkscape:connector-curvature="0" fill="#6E736B" stroke="#171616" stroke-width="1.9" d="M-2130.092,3309.115
				c-2.826,3.022-4.693,6.977-5.345,11.064c0.197,0.83,1.302,0.76,1.833,0.338c4.705-1.998,9.371-4.069,14.036-6.146
				c-1.465-2.515-4.348-3.737-7.087-4.306c-1.122-0.324-2.239-0.654-3.325-1.073l-0.082,0.092L-2130.092,3309.115z"/>
		</g>
		
			<path id="use6209-4" sodipodi:nodetypes="ccccccccccccccccccccccccccccccccccccccccc" inkscape:connector-curvature="0" fill="#989380" stroke="#171616" stroke-width="1.9" d="
			M11.359,24.268c2.174,0.403,5.299,0.421,7.974,0.707c0.361,0.067,1.177,0.106,1.018-0.469c-0.086-0.241-0.516-0.578-0.499-0.656
			c0.584,0.185,0.783,0.752,1.13,1.175c1.141,0.792,2.652,0.555,3.967,0.743c1.286,0.07,2.608,0.354,3.882,0.149
			c0.589-0.189,0.308-0.91-0.078-1.151c-0.421-0.393-0.813-0.808-1.296-1.121c1.552,0.769,2.316,2.674,4.097,3.029
			c3.351,0.64,6.812,0.91,10.234,0.963c0.506-0.008,1.022-0.673,0.502-1.043c-0.669-0.625-1.307-1.323-2.098-1.82
			c1.125,0.547,1.891,1.52,2.729,2.386c0.936,0.954,2.282,1.266,3.579,1.312c3.023,0.313,6.065,0.371,9.102,0.284
			c0.585-1.443-0.524-2.812-1.496-3.756c-0.146-0.188-1.088-0.961-0.592-0.646c1.058,0.745,1.989,1.746,2.582,2.89
			c0.306,0.614,0.118,1.356-0.357,1.844c3.826,0.493,7.682,0.801,11.54,0.738c-0.712-1.304-0.187-2.804-0.362-4.193
			c-0.611-1.128-1.521-2.08-2.538-2.872c1.027,0.686,1.959,1.453,2.812,2.325c1.382-1.706,2.978-3.243,4.828-4.427
			c-3.776-1.382-7.917-0.81-11.803-0.187c-2.104-0.479-4.32-0.564-6.488-0.642c-2.837-0.027-5.706,0.098-8.471,0.738
			c-0.205,0.088-0.395,0.295-0.336,0.534c-3.076-0.739-6.283-0.749-9.434-0.821c-0.768,0.086-1.907-0.043-2.315,0.775
			c-0.142,0.245,0.111,0.572,0.192,0.688c-0.578-0.201-0.865-0.923-1.546-0.734c-2.604,0.017-5.314-0.386-7.846,0.328
			c-0.214,0.089-0.222,0.426-0.199,0.538c-1.596-0.538-3.336-0.301-4.987-0.384c-0.517,0.154-1.421-0.025-1.61,0.623
			c-0.087,0.229,0.527,0.534,0.111,0.405c-1.579-0.214-3.186,0.045-4.758,0.233c-0.551,0.087-4.604,0.245-5.158,0.74
			C7.529,23.594,11.191,24.165,11.359,24.268z"/>
		<path id="use5253" inkscape:connector-curvature="0" fill="#E4E3BF" stroke="#171616" stroke-width="1.9" d="M118.076-10.337
			c-19.33,0.196-38.133,10.353-47.143,30.823c-0.289,1.205-0.382,1.663-0.189,1.988c-0.018,0.101-0.038,0.203-0.052,0.304
			l0.048,9.293c0.015,0,0.04,0,0.055,0c-0.384,0.595,0.04,1.459-0.118,2.134c0.076,14.144-0.117,28.291,0.124,42.431
			c0.365,4.438,1.548,9.133,4.778,12.346c1.162,0.836,2.66,0.315,3.979,0.318c4.653-0.545,9.239-3.295,11.188-7.671
			c0.178-0.838-0.875-0.961-1.332-1.398c-1.57-1.188-2.275-3.252-1.986-5.172c0.057-2.995-0.197-6.048,0.131-9.004
			c0.932-0.614,2.02-0.962,2.939-1.602c4.445-2.544,8.342-6.192,10.943-10.637c0.176-0.222,0.309-0.495,0.424-0.75
			c0.006-0.012,0.016-0.023,0.02-0.034c0,0,0-0.002-0.004-0.005c0.039-0.087,0.082-0.169,0.117-0.246
			c0.979-1.841,1.762-3.781,2.393-5.769c0.01,0.012,0.02,0.022,0.033,0.034c0.133-0.476,0.262-0.952,0.385-1.433
			c0.078-0.281,0.152-0.564,0.227-0.847c-0.004-0.006-0.01-0.014-0.018-0.02c0.967-4.146,1.379-8.417,1.268-12.675
			c0.873,0,1.93,0,2.9,0c1.666,0.297,1.379,0.921,1.387,2.223c0.277,8.105,0.572,17.714,2.881,28.098
			c1.732,6.599,4.271,12.482,7.402,17.148l1.646,2.453h-13.973H94.561l0.197,3.186c0.727,11.705,2.631,18.6,6.898,25.012
			c4.797,7.215,13.164,12.734,22.365,14.764c5.506,1.211,16.361,0.355,16.361-1.288c0-0.271-0.402-1.369-0.895-2.444
			c-0.498-1.076-1.131-3.07-1.414-4.432c-0.285-1.357-0.623-2.572-0.75-2.698c-0.123-0.118-0.783,0.315-1.465,0.978l-1.23,1.195
			l-3.037-0.41c-5.344-0.715-10.223-2.752-14.125-5.896c-1.443-1.165-1.949-3.522-1.604-7.47l0.227-2.603l1.723,0.866
			c6.232,3.13,15.301,5.076,25.652,5.502l5.455,0.227l2.183,1.821c2.76,2.302,6.166,4.517,9.647,6.269
			c3.608,1.205,1.19,1.125,1.479,2.777c-0.264,7.612,0.33,15.215,0.82,22.807c0.162,3.992,0.6,8.08-0.312,12.005
			c-0.233,1.25-0.907,2.437-2.03,3.104c-1.623,0.95-3.257,1.894-4.668,3.154c3.786,1.255,7.213,3.585,9.717,6.691
			c1.567-1.666,3.59-2.918,5.797-3.512c-0.104-8.238,0.959-16.791,5.162-24.002c2.104-3.5,5.22-6.441,9.047-7.949
			c-4.164-12.022-13.78-13.475-10.85-13.392c2.604-2.974,6.069-5.897,9.393-7.942c4.332-2.612,5.445-2.791,18.505-2.963l11.7-0.15
			l2.608-3.428c7.361-9.67,19.125-17.342,31.734-20.697c7.338-1.953,8.381-2.058,22.769-2.248l13.598-0.18l-0.237-3.379
			c-0.371-5.229-2.019-11.011-4.308-15.1c-1.67-2.986-3.847-5.663-7.242-8.918c-9.092-8.708-22.018-13.836-38.239-15.167
			c-6.357-0.521-10.043-0.069-16.06,1.956c-6.875,2.313-10.256,2.883-18.567,3.108c-6.25,0.171-8.045,0.086-12.729-0.589
			c-4.576-0.659-12.437-2.295-12.731-2.652c-0.043-0.056-0.437-1.895-0.88-4.084c-1.438-7.212-4.452-13.96-8.983-20.101
			c-11.271-15.851-28.906-23.958-46.249-24.065C118.689-10.339,118.381-10.34,118.076-10.337z"/>
		
			<path id="use6045" sodipodi:nodetypes="ccccccccccsccc" inkscape:connector-curvature="0" fill="#BBB78A" stroke="#171616" stroke-width="1.9" d="
			M171.299,35.019c0.004,0.119,0.004,0.237,0.004,0.357c0.268,13.626,0.043,27.257,0.121,40.885
			c11.322,7.137-9.889,39.704,3.488,39.997c2.605-2.974,6.074-5.897,9.396-7.942c4.332-2.612,5.444-2.791,18.504-2.963l11.7-0.15
			l0.646-0.846c-10.188-12.744-16.654-27.583-19.945-42.759c-1.521-6.774-2.453-13.628-3.006-20.51
			c-1.307-0.104-2.643-0.273-4.367-0.521c-4.58-0.66-12.436-2.295-12.732-2.652c-0.033-0.038-0.225-0.912-0.479-2.123
			C173.52,35.548,172.406,35.291,171.299,35.019z"/>
		<path id="use5341" inkscape:connector-curvature="0" fill="#E4E3BF" stroke="#171616" stroke-width="1.9" d="M61.805,20.249
			c-4.862,0.119-9.526,2.041-13.436,4.846c-0.078,0.915,0.851,1.396,1.635,1.452c6.97,1.657,13.904,3.521,20.913,5.044
			c2.658,0.04,5.321-0.012,7.977-0.004c-2.6-4.665-6.528-8.887-11.715-10.562C65.45,20.474,63.625,20.205,61.805,20.249z"/>
		<path id="use5353" inkscape:connector-curvature="0" fill="#6E736B" stroke="#171616" stroke-width="1.9" d="M138.469,111.729
			c-0.77,0.842-1.588,2.021-1.098,3.217c0.426,3.19,1.293,6.42,3.238,9.031c3.941-1.483,7.27-4.435,9.197-8.164
			c-3.314-1.596-6.881-2.598-10.311-3.918C139.186,111.892,138.66,111.392,138.469,111.729z"/>
		<path id="use5359" inkscape:connector-curvature="0" fill="#6E736B" stroke="#171616" stroke-width="1.9" d="M155.902,158.539
			c-1.65,0.753-2.732,2.301-3.972,3.573c-1.445,1.738-2.535,3.789-3.051,6c5.008,0.057,10.015,0.025,15.022,0.025
			c0.611-1.087,1.271-2.148,2.004-3.164c-2.577-3.043-5.891-5.781-9.932-6.469L155.902,158.539z"/>
		<g id="g6464" transform="translate(2,622)">
			<g id="g5678" transform="translate(2190.0625,-3916.7965)">
				<g id="g5674">
					<path id="use5373" inkscape:connector-curvature="0" fill="#7DBF3B" stroke="#171616" stroke-width="1.9" d="
						M-2099.705,3289.498c-1.943,1.188-3.797,2.554-5.643,3.919c3.438,6.61,9.703,10.825,16.17,13.202
						c1.871,0.648,3.836,1.312,5.814,1.174c0.787-0.423,0.469-1.52,0.16-2.177c-1.623-5.397-5.539-9.556-9.895-12.457
						c-2.092-1.391-4.275-2.605-6.498-3.726l-0.105,0.062L-2099.705,3289.498z"/>
					<path id="use5375" inkscape:connector-curvature="0" fill="#B6CC49" stroke="#171616" stroke-width="1.9" d="
						M-2105.703,3293.83c-1.109,0.643-2.062,1.626-3.08,2.449c-1.174,1.034-2.318,2.1-3.432,3.207
						c4.473,7.818,12.229,12.763,20.307,14.896c3.363,0.91,6.84,1.349,10.309,1.311c-0.117-2.455-0.281-4.93-0.926-7.296
						c-1.852-0.54-3.818-0.557-5.623-1.269c-6.594-2.061-12.775-6.196-16.721-12.408
						C-2105.055,3294.37-2105.234,3293.784-2105.703,3293.83z"/>
				</g>
				<g id="g5670">
					
						<path id="use5377" inkscape:connector-curvature="0" fill="#297E9E" stroke="#171616" stroke-width="1.9" stroke-linecap="square" stroke-linejoin="round" d="
						M-2112.597,3299.819c-1.214,1.446-2.865,2.581-3.695,4.364c-0.082,1.307,1.242,1.803,2.063,2.375
						c2.745,1.575,5.963,1.849,9.018,1.521c-2.748-2.449-5.25-5.214-7.178-8.47
						C-2112.458,3299.68-2112.527,3299.748-2112.597,3299.819z"/>
					<path id="use5379" inkscape:connector-curvature="0" fill="#9AB8C2" stroke="#171616" stroke-width="1.9" d="
						M-2117.078,3304.867c-1.067,1.469-2.092,2.994-2.719,4.751c4.276,4.411,10.632,5.5,16.271,4.389
						c1.67-0.339,3.275-0.996,4.809-1.783c-2.258-1.196-4.316-2.866-6.541-4.072c-3.049,0.415-6.256,0.187-8.989-1.443
						c-0.982-0.547-1.867-1.247-2.673-2.058C-2116.971,3304.722-2117.025,3304.793-2117.078,3304.867z"/>
				</g>
			</g>
			<g id="g6458">
				
					<path id="use5686" sodipodi:nodetypes="cccccccc" inkscape:connector-curvature="0" fill="#9AB8C2" stroke="#171616" stroke-width="1.9" d="
					M140.213-629.518c2.322,3.815,8.602,12.188,9.184,28.667c0.178,6.502,0.021,13.023,0.099,19.514
					c0.002,0.718,1,1.079,1.396,0.431c6.453-9.579,10.018-24.623,8.582-34.154c-1.332-2.044-4.836-4.873-6.582-6.549
					c-1.361-1.138-3.18-2.498-5.088-3.806C145.359-626.984,142.822-628.353,140.213-629.518z"/>
				<path id="use5369" inkscape:connector-curvature="0" fill="#9AB8C2" stroke="#171616" stroke-width="1.9" d="M99.463-631.67
					c-2.93,0.99-5.773,2.242-8.492,3.754c-0.219,0.138-0.441,0.271-0.658,0.409c5.254,2.894,10.758,6.103,14.113,11.569
					c3.355,5.572,3.094,12.475,3.156,18.992c-0.123,5.93,0.865,12.025,3.193,17.446c2.262,5.464,6.689,10.272,12.123,11.813
					c0.711,0.207,1.43,0.366,2.158,0.479c-2.527-8.612-1.852-17.805-2.189-26.727c0.039-6.016-0.168-12.25-2.6-17.735
					c-3.4-8.303-10.062-14.527-17.443-18.474C101.736-630.705,100.617-631.301,99.463-631.67z"/>
				<path id="use5367" inkscape:connector-curvature="0" fill="#CC9933" stroke="#171616" stroke-width="1.9" d="M112.645-634.334
					c-4.506,0.344-8.947,1.231-13.211,2.676c1.748,1.668,4.219,2.273,6.152,3.705c6.584,4.079,12.16,10.147,14.744,17.664
					c1.689,4.828,1.666,10.087,1.709,15.181c0.191,6.936-0.133,13.975,1.26,20.796c1.084,5.144,3.365,10.328,7.609,13.505
					c2.629,1.977,5.818,3.132,9.07,3.458c-2.176-3.84-3.908-8.088-3.922-12.604c-0.197-4.925,0.008-9.854-0.084-14.78
					c-0.021-6.366,0.164-12.745-0.188-19.104c-0.939-9.348-5.676-18.184-12.809-24.052
					C119.865-630.534,116.412-632.822,112.645-634.334z"/>
				<path id="use5365" inkscape:connector-curvature="0" fill="#B8412C" stroke="#171616" stroke-width="1.9" d="M117.238-634.497
					c-1.42-0.01-2.834,0.04-4.244,0.139c0.016,0.012,0.031,0.022,0.047,0.034c3.244,1.946,6.543,3.884,9.348,6.446
					c6.758,5.939,11.51,14.532,12.297,23.657c0.549,5.688,0.117,11.409,0.268,17.113c0.025,6.332-0.156,12.677,0.15,19.002
					c0.729,6.495,4.34,12.648,9.891,16.074c3.737,2.443,8.047,3.808,12.399,4.591c-2.797-2.973-5.113-6.495-5.938-10.538
					c-1.98-7.933-1.188-16.188-1.377-24.283c-0.027-8.647,0.156-17.302-0.236-25.941c-0.654-7.509-3.449-15.12-9.021-20.288
					c-0.568-0.546-1.166-1.057-1.789-1.531C132.059-632.951,124.623-634.452,117.238-634.497z"/>
			</g>
		</g>
		<path id="use5715" inkscape:connector-curvature="0" fill="#E4E3BF" stroke="#171616" stroke-width="1.9" d="M270.252,122.112
			c-8.082,6.643-17.557,11.781-27.713,14.371c-0.979,0.625-0.439,1.867-0.574,2.801c-0.078,5.393,0.156,10.798-0.117,16.18
			c-0.854,1.891-2.754,2.945-4.17,4.37c-1.117,0.95-2.18,1.963-3.033,3.165c3.775,1.203,6.914,3.771,9.697,6.51
			c0.932,0.273,1.387-0.783,1.785-1.402c2.338-3.484,6.033-5.863,9.926-7.317c0.918-6.257,0.865-12.755,2.857-18.785
			c1.07-2.819,3.33-5.136,6.123-6.253c2.408-1.121,4.996-1.699,7.57-2.297c-0.5-3.883-1.002-7.782-2.062-11.559
			C270.441,121.968,270.348,122.04,270.252,122.112z"/>
		<path id="use5717" inkscape:connector-curvature="0" fill="#6E736B" stroke="#171616" stroke-width="1.9" d="M234.4,162.978
			c-3.363,3.674-5.642,8.498-5.73,13.553c4.949,0.008,9.898,0.021,14.842,0c0.193-2.172,0.643-4.33,1.516-6.334
			c-2.785-3.303-6.319-6.135-10.528-7.338l-0.082,0.098L234.4,162.978z"/>
		<path id="use5723" inkscape:connector-curvature="0" fill="#6E736B" stroke="#171616" stroke-width="1.9" d="M235.197,137.635
			c-4.723,0.382-9.463,0.054-14.197,0.167c-0.605,0.141-1.783-0.293-1.994,0.238c-0.012,2.611-0.027,5.225,0.016,7.837
			c4.543,0.015,9.115,0.097,13.627-0.375c0.795,0.119,1.476-0.599,1.385-1.384c0.375-2.045,1.443-3.879,2.123-5.805
			C236.111,137.86,235.629,137.567,235.197,137.635z"/>
		<path id="use5725" inkscape:connector-curvature="0" fill="#929278" stroke="#171616" stroke-width="1.9" d="M232.33,143.551
			c-4.395,0.593-8.861,0.4-13.289,0.419c-0.238,2.219,0.293,4.52-0.277,6.688c-1.102,2.011-3.203,3.124-4.719,4.765
			c-1.533,1.41-2.969,2.917-4.236,4.579c3.844,0.961,7.226,3.422,9.652,6.505c0.771,0.506,1.539-0.378,1.65-1.1
			c2.32-5.129,6.608-9.066,11.311-11.984c0.85-0.967,0.436-2.355,0.742-3.504c0.213-2.085,0.473-4.175,0.969-6.212
			C233.527,143.646,232.938,143.521,232.33,143.551z"/>
		<path id="use5727" inkscape:connector-curvature="0" fill="#6E736B" stroke="#171616" stroke-width="1.9" d="M210.297,160.125
			c-1.262,0.292-1.498,1.746-2.166,2.663c-1.398,2.684-2.234,5.682-2.227,8.725c4.613-0.008,9.229,0.049,13.842-0.037
			c-0.199-1.418,0.734-2.754,0.389-4.158c-2.195-3.482-5.646-6.344-9.727-7.196C210.371,160.123,210.334,160.12,210.297,160.125z"/>
		<path id="use6047_1_" inkscape:connector-curvature="0" fill="#989380" stroke="#171616" stroke-width="1.9" d="M199.064,41.193
			c-2.986,0.084-7.365-0.101-10.174-0.468c0.004,0.091,0,0,0.004,0.091c0.911,16.633,4.44,33.372,12.467,48.361
			c2.889,5.379,6.377,10.494,10.418,15.196c1.096,0.397,2.5-0.084,2.86-1.161c1.359-1.809,2.861-3.518,4.39-5.203
			c-3.785-4.322-6.576-9.292-9.185-14.27c-6.44-12.803-9.938-26.856-10.702-40.947L199.064,41.193z"/>
		<g id="g6483" transform="translate(-880,0)">
			
				<path id="use5881-7" sodipodi:nodetypes="cccccccccccccccc" inkscape:connector-curvature="0" fill="#9AB8C2" stroke="#171616" stroke-width="1.9" d="
				M1076.734,142.011c0.186-5.16,0.504-10.816,2.106-15.475c-0.262-3.787,2.246-9.471,3.588-13.766
				c3.107-7.027,6.515-14.492,12.597-19.399c3.229-4.791,8.42-8.086,13.321-11.085c11.089-6.477,24.076-8.961,36.816-8.609
				c4.75-0.049,9.5-0.023,14.25-0.036c1.756-9.9-5.89-21.221-8.113-24.656c9.992,3.014,18.884,11.117,20.658,21.708
				c1.893,8.393,0.84,17.357-1.767,25.5c-2.016,4.379-3.662,8.942-6.494,12.961c-5.877,7.88-12.393,13.391-19.741,19.031
				c-9.47,5.858-20.336,10.164-31.64,9.782c-8.842,0.234-17.795,0.651-26.571,0.113c-3.613,3.01-6.187,7.077-9.218,10.653
				C1076.602,146.497,1076.668,144.252,1076.734,142.011z"/>
			<path id="use5885-6" inkscape:connector-curvature="0" fill="#B6CC49" stroke="#171616" stroke-width="1.9" d="M1156.096,57.255
				c0.914,1.898,1.783,3.981,2.428,6.151h10.937c-1.191-2.248-2.72-4.31-4.494-6.147c-0.033,0-0.065,0.007-0.101,0.009
				C1162.227,57.276,1159.055,57.252,1156.096,57.255z"/>
			
				<path id="use5887-5" sodipodi:nodetypes="ccccccccccccccc" inkscape:connector-curvature="0" fill="#7DBF3B" stroke="#171616" stroke-width="1.9" d="
				M1172.381,72.891c-0.48,0.157-0.955,0.291-1.293,0.388c-1.268,0.43-2.607,0.299-3.9,0.312c-2.59,0.004-5.186,0.004-7.768,0.004
				c-0.004,0.017-0.008,0.032-0.008,0.049c-4.75,0.011-9.5-0.013-14.25,0.038c-12.74-0.352-25.732,2.132-36.824,8.607
				c-4.01,2.455-8.219,5.112-11.385,8.626c0.604-0.239,1.219-0.484,1.846-0.684c4.057-1.383,8.303-2.129,12.574-2.236
				c1.598-0.03,3.205-0.016,4.803-0.016c7.121,0.014,14.258-0.041,21.383-0.055c10.365-0.77,25.756,0.5,30.836-2.176
				c1.387-0.688,3.096-1.561,4.396-2.703C1173.041,79.646,1172.93,76.233,1172.381,72.891z"/>
			
				<path id="path5951-9" inkscape:connector-curvature="0" fill="#297E9E" stroke="#171616" stroke-width="1.9" stroke-linecap="square" stroke-linejoin="round" d="
				M1156.164,117.608c-0.045,0-0.094,0.002-0.139,0.004c-3.232,0.812-6.371,2.181-9.752,2.17
				c-9.777,0.818-19.609,0.357-29.396,1.068c-4.22,0.349-8.379,1.283-12.295,2.895c-7.394,2.861-14.148,7.281-19.941,12.691
				c-0.479,0.733-0.082,1.617,0.593,2.086c0.168-0.146,0.34-0.295,0.51-0.438c8.776,0.542,17.729,0.123,26.574-0.11
				c11.299,0.379,22.17-3.92,31.635-9.783c4.414-3.385,8.521-6.728,12.385-10.563
				C1156.277,117.614,1156.219,117.608,1156.164,117.608z"/>
			
				<path id="use5889-6" inkscape:connector-curvature="0" fill="#297E9E" stroke="#171616" stroke-width="1.9" stroke-linecap="square" stroke-linejoin="round" d="
				M1167.021,103.294c-0.697,0.29-1.459,0.587-2.041,0.812c-2.562,1.074-5.283,1.699-8.039,2.099
				c-2.943,0.44-5.924,0.596-8.908,0.685c-6.729,0.146-13.467,0.119-20.199,0.252c-5.75,0.012-11.504,0.104-17.256,0.139
				c-7.184,0.262-14.188,3.191-19.816,7.83c-4.998,4.076-9.006,9.363-12.172,15.082c-0.248,0.481-0.568,0.931-0.656,1.477
				c-0.42,2.581-0.742,5.186-0.988,7.797c-0.073,0.82-0.141,1.633-0.202,2.453c0,0.033-0.005,0.064-0.005,0.1l-0.204,6.724
				c0.139-0.163,0.276-0.327,0.411-0.494c0.539-0.74,1.031-1.511,1.599-2.22c1.447-1.936,2.994-3.769,4.627-5.536
				c5.928-6.378,13.08-11.616,21.069-14.745c5.316-2.089,10.968-3.202,16.636-3.293c3.143-0.039,6.282,0.003,9.426-0.012
				c3.513-0.027,7.022,0.047,10.537-0.066c4.897-0.323,9.836-1.309,14.242-3.641c0.104-0.055,0.204-0.117,0.313-0.178
				c2.908-2.809,5.672-5.863,8.312-9.396C1165.01,107.295,1166.064,105.315,1167.021,103.294z"/>
		</g>
		
			<path id="use6059" sodipodi:nodetypes="ccccccccccc" inkscape:connector-curvature="0" fill="#989380" stroke="#171616" stroke-width="1.9" d="
			M161.662,10.301c0.504,6.932-1.262,13.317-3.652,19.854c-0.203,1.03,2.184,2.146,2.518,2.968c2.162,3.482,2.541,7.691,2.744,11.7
			c0.109,5.322-0.051,10.644,0.031,15.966c-0.039,18.257-0.008,36.517-0.027,54.772c3.037,0.778,6.199,0.231,9.289,0.396
			c0.791-0.002,1.578-0.014,2.365-0.025c-0.029-25.326,0.084-50.65-0.057-75.975c-0.586-11.284-5.83-22.568-13.475-30.796
			C161.406,9.384,161.654,10.083,161.662,10.301z"/>
		<path id="use5325" inkscape:connector-curvature="0" fill="none" stroke="#403C3E" stroke-width="1.9" d="M78.691,42.311
			c-0.697,0.388-0.268,1.353-0.352,1.991c0.015,1.865,0.434,4.069-0.844,5.633c-0.315,0.443-0.898,0.542-1.308,0.777
			c-0.347,0.332,0.144,0.842,0.521,0.578c1.837-0.652,2.624-2.813,2.354-4.639c-0.27-1.438,0.394-3.005-0.308-4.347h-0.042
			L78.691,42.311z"/>
	</g>
	<g enable-background="new    ">
		<path d="M99.31,165.324v-1.86c-0.794,1.421-2.237,2.007-3.679,2.027c-2.759,0-4.662-1.693-4.662-4.557v-5.958h1.024v5.937
			c0,2.342,1.442,3.596,3.679,3.575c2.132-0.021,3.616-1.631,3.616-3.763v-5.749h1.024v10.348H99.31z"/>
		<path d="M104.012,154.997v1.84c0.794-1.422,2.237-2.007,3.679-2.027c2.759,0,4.662,1.693,4.662,4.557v5.958h-1.024v-5.937
			c0-2.342-1.442-3.596-3.679-3.575c-2.132,0.021-3.617,1.631-3.617,3.763v5.749h-1.024v-10.327H104.012z"/>
		<path d="M116.384,151.632c0,1.087-1.651,1.087-1.651,0S116.384,150.545,116.384,151.632z M115.025,154.955v10.369h1.024v-10.369
			H115.025z"/>
		<path d="M128.884,150.691v14.633h-1.003v-2.278c-0.857,1.567-2.55,2.445-4.307,2.445c-2.885,0-5.163-1.902-5.163-5.33
			c0-3.408,2.299-5.331,5.184-5.331c1.777,0,3.449,0.753,4.286,2.425v-6.563H128.884z M119.414,160.161
			c0,2.863,1.902,4.327,4.223,4.327c2.425,0,4.223-1.777,4.223-4.349s-1.839-4.327-4.223-4.327
			C121.317,155.812,119.414,157.255,119.414,160.161z"/>
		<path d="M131.348,160.182c0-3.282,2.341-5.372,5.247-5.372s5.247,2.09,5.247,5.372s-2.341,5.289-5.247,5.289
			S131.348,163.464,131.348,160.182z M140.838,160.182c0-2.676-1.902-4.411-4.244-4.411s-4.244,1.735-4.244,4.411
			s1.902,4.285,4.244,4.285S140.838,162.857,140.838,160.182z"/>
		<path d="M143.721,160.182c0-3.282,2.341-5.372,5.247-5.372c2.905,0,5.247,2.09,5.247,5.372s-2.342,5.289-5.247,5.289
			C146.062,165.471,143.721,163.464,143.721,160.182z M153.211,160.182c0-2.676-1.902-4.411-4.243-4.411
			c-2.341,0-4.244,1.735-4.244,4.411s1.902,4.285,4.244,4.285C151.309,164.467,153.211,162.857,153.211,160.182z"/>
	</g>
</g>
</svg>
