<?xml version="1.0" encoding="utf-8"?>
<!-- Generator: Adobe Illustrator 16.0.4, SVG Export Plug-In . SVG Version: 6.00 Build 0)  -->
<!DOCTYPE svg PUBLIC "-//W3C//DTD SVG 1.1//EN" "http://www.w3.org/Graphics/SVG/1.1/DTD/svg11.dtd">
<svg version="1.1" id="Calque_2" xmlns="http://www.w3.org/2000/svg" xmlns:xlink="http://www.w3.org/1999/xlink" x="0px" y="0px"
	 width="200px" height="183.5px" viewBox="0 0 200 183.5" enable-background="new 0 0 200 183.5" xml:space="preserve">
<g>
	<path id="use6209-4_1_" fill="#989380" stroke="#171616" stroke-width="2" d="M15.016,13.951c2.125,1.99,5.578,4.223,8.338,6.438
		c0.357,0.332,1.229,0.949,1.461,0.197c0.076-0.326-0.162-1.004-0.088-1.076c0.519,0.617,0.34,1.389,0.42,2.102
		c0.705,1.688,2.549,2.496,3.869,3.633c1.379,0.992,2.642,2.246,4.199,2.922c0.789,0.207,0.984-0.793,0.73-1.336
		c-0.188-0.73-0.332-1.467-0.644-2.16c1.181,1.953,0.673,4.607,2.394,6.264c3.262,3.084,6.91,5.838,10.666,8.32
		c0.563,0.352,1.606-0.016,1.291-0.801c-0.297-1.166-0.51-2.391-1.031-3.502c0.855,1.402,1.02,3.027,1.332,4.576
		c0.359,1.723,1.633,3.021,3.037,3.994c3.133,2.484,6.463,4.709,9.885,6.764c1.676-1.186,1.418-3.488,1.01-5.225
		c-0.029-0.311-0.523-1.836-0.203-1.137c0.646,1.578,0.969,3.348,0.814,5.035c-0.092,0.898-0.826,1.588-1.699,1.791
		c3.887,3.26,7.945,6.334,12.27,9c0.134-1.951,1.781-3.244,2.568-4.906c0.119-1.684-0.213-3.387-0.779-4.984
		c0.656,1.488,1.146,3,1.47,4.572c2.745-0.912,5.604-1.484,8.491-1.486c-3.207-4.209-8.198-6.51-12.948-8.572
		c-1.996-2.025-4.392-3.689-6.738-5.311c-3.125-2.037-6.396-3.932-9.912-5.186c-0.293-0.049-0.651,0.049-0.754,0.354
		c-2.887-3-6.435-5.283-9.877-7.594c-0.91-0.451-2.082-1.402-3.117-0.783c-0.327,0.172-0.28,0.711-0.27,0.898
		c-0.505-0.633-0.308-1.635-1.195-1.912c-2.901-1.826-5.619-4.195-8.93-5.193c-0.304-0.055-0.548,0.312-0.604,0.453
		c-1.389-1.727-3.486-2.697-5.254-3.963c-0.684-0.193-1.561-1.033-2.232-0.451c-0.254,0.195,0.209,0.969-0.162,0.527
		c-1.598-1.352-3.563-2.207-5.438-3.111c-0.674-0.293-5.279-2.992-6.244-2.834C11.244,10.49,14.902,13.721,15.016,13.951z"/>
	<path id="use5253_2_" fill="#E4E3BF" stroke="#171616" stroke-width="2" stroke-linecap="round" stroke-linejoin="round" d="
		M189.859,98.248c-7.871-30.971-13.31-35.611-33.49-51.367c-0.342-0.215-0.682-0.436-1.023-0.648
		c-21.566-13.484-49.611-15.553-74.106,0.754c-1.173,1.131-1.603,1.57-1.621,2.07c-0.086,0.102-0.185,0.199-0.271,0.301
		l-6.533,10.336c0.016,0.01,0.047,0.027,0.062,0.039c-0.849,0.387-0.987,1.645-1.646,2.281
		c-9.938,15.734-20.188,31.281-29.938,47.125c-2.742,5.18-4.756,11.223-3.453,17.074c0.699,1.75,2.723,2.232,4.184,3.172
		c5.543,2.695,12.578,2.891,17.836-0.57c0.796-0.807-0.284-1.688-0.481-2.498c-0.897-2.43-0.215-5.221,1.466-7.141
		c2.188-3.281,4.069-6.846,6.522-9.889c1.478-0.02,2.924,0.367,4.396,0.303c6.731,0.334,13.639-0.947,19.67-4.027
		c0.354-0.125,0.692-0.332,1.002-0.533c0.02-0.01,0.032-0.014,0.043-0.026c0,0,0.002-0.004,0.006-0.008
		c0.104-0.065,0.207-0.129,0.301-0.188c2.391-1.348,4.637-2.94,6.742-4.699c0,0.019,0.008,0.039,0.012,0.062
		c0.488-0.436,0.965-0.871,1.445-1.314c0.279-0.256,0.57-0.52,0.854-0.778c-0.008-0.011-0.008-0.021-0.008-0.033
		c4.006-3.914,7.49-8.355,10.388-13.158L189.859,98.248z"/>
	<path id="use5325_1_" fill="none" stroke="#403C3E" stroke-width="2" d="M77.885,71.309c-1.047-0.064-1.252,1.311-1.799,1.959
		c-1.305,2.08-2.406,4.818-4.924,5.645c-0.666,0.27-1.387-0.035-2.006-0.064c-0.619,0.123-0.437,1.031,0.17,1.01
		c2.498,0.58,4.9-1.258,5.898-3.471c0.721-1.785,2.563-3.053,2.739-5.039l-0.047-0.029L77.885,71.309z"/>
	<g id="g6464_1_" transform="translate(2,622)">
		<g id="g5678_1_" transform="translate(2190.0625,-3916.7965)">
			<g id="g5674_1_">
				<path id="use5373_1_" fill="#7DBF3B" stroke="#171616" stroke-width="2" d="M-2070.145,3330.49
					c-2.992-0.059-6.019,0.142-9.033,0.348c-0.879,9.766,3.084,18.877,8.563,26.094c1.619,2.047,3.326,4.174,5.615,5.424
					c1.174,0.09,1.599-1.354,1.721-2.299c2.025-7.137,0.632-14.521-2.141-20.822c-1.33-3.025-2.886-5.92-4.56-8.736l-0.164-0.008
					L-2070.145,3330.49L-2070.145,3330.49z"/>
				<path id="use5375_1_" fill="#B6CC49" stroke="#171616" stroke-width="2" d="M-2079.865,3331.042
					c-1.682-0.074-3.443,0.34-5.152,0.531c-2.028,0.314-4.057,0.685-6.077,1.123c-0.58,11.842,4.51,22.816,11.952,30.906
					c3.087,3.393,6.625,6.346,10.5,8.76c1.609-2.805,3.185-5.662,4.144-8.744c-1.668-1.908-3.832-3.32-5.332-5.391
					c-5.851-6.953-9.769-15.922-9.738-25.604C-2079.527,3332.101-2079.314,3331.322-2079.865,3331.042z"/>
			</g>
			<g id="g5670_1_">
				<path id="use5377_1_" fill="#297E9E" stroke="#171616" stroke-width="2" stroke-linecap="square" stroke-linejoin="round" d="
					M-2091.754,3332.794c-2.369,0.742-5.004,0.832-7.191,2.219c-1.016,1.389,0.103,2.879,0.605,4.094
					c1.926,3.693,5.297,6.277,8.924,8.082c-1.314-4.664-2.127-9.502-1.959-14.48
					C-2091.502,3332.738-2091.625,3332.765-2091.754,3332.794z"/>
				<path id="use5379_1_" fill="#9AB8C2" stroke="#171616" stroke-width="2" d="M-2100.295,3335.216
					c-2.227,0.869-4.441,1.836-6.385,3.34c1.621,7.92,7.891,13.629,14.93,16.396c2.09,0.807,4.338,1.215,6.594,1.432
					c-1.658-2.928-2.752-6.236-4.365-9.152c-3.678-1.699-7.069-4.227-8.938-7.969c-0.703-1.303-1.19-2.709-1.51-4.178
					C-2100.08,3335.128-2100.188,3335.169-2100.295,3335.216z"/>
			</g>
		</g>
		<g id="g6458_1_">
			<path id="use5686_1_" fill="#9AB8C2" stroke="#171616" stroke-width="2" d="M176.76-553.426
				c-0.131,5.873,0.896,19.607-10.139,38.289c-4.412,7.334-9.207,14.445-13.727,21.697c-0.506,0.801,0.348,1.905,1.246,1.469
				c13.938-6.045,28.562-20.195,33.719-31.781c-0.027-3.209-1.906-8.828-2.652-11.924c-0.701-2.225-1.75-5.021-2.945-7.824
				C180.668-546.969,178.824-550.287,176.76-553.426z"/>
			<path id="use5369_1_" fill="#9AB8C2" stroke="#171616" stroke-width="2" d="M133.109-584.695
				c-3.953-0.982-7.988-1.609-12.074-1.859c-0.344-0.006-0.678-0.014-1.02-0.014c3.772,6.932,7.602,14.389,7.446,22.828
				c-0.231,8.555-5.416,16.023-9.963,23.291c-4.342,6.486-7.565,13.945-8.828,21.604c-1.364,7.661,0.131,16.131,5.063,21.688
				c0.644,0.736,1.324,1.422,2.05,2.059c3.305-11.338,10.573-21.047,16.521-31.182c4.309-6.639,8.5-13.695,9.69-21.5
				c2.11-11.617-0.861-23.236-6.246-32.844C134.945-582.016,134.127-583.469,133.109-584.695z"/>
			<path id="use5367_1_" fill="#CC9933" stroke="#171616" stroke-width="2" d="M149.609-578.309
				c-5.238-2.811-10.789-4.977-16.539-6.398c0.754,3.09,3.066,5.514,4.191,8.471c4.405,9.188,6.288,19.869,3.825,30.031
				c-1.553,6.549-5.303,12.365-8.86,18.041c-4.707,7.822-10.056,15.398-13.345,23.947c-2.444,6.471-3.596,13.834-1.141,20.363
				c1.512,4.057,4.231,7.596,7.608,10.262c0.308-5.797,1.396-11.732,4.582-16.75c3.275-5.598,6.988-10.92,10.383-16.443
				c4.49-7.074,9.22-14.016,13.33-21.314c5.586-11.028,6.603-24.179,2.854-35.739C154.924-568.977,152.717-573.961,149.609-578.309z
				"/>
			<path id="use5365_1_" fill="#B8412C" stroke="#171616" stroke-width="2" d="M154.818-575.232c-1.57-1.02-3.172-1.967-4.803-2.854
				c0.008,0.021,0.016,0.045,0.024,0.07c2.221,4.455,4.502,8.943,5.799,13.773c3.277,11.373,2.453,24.264-3.144,34.937
				c-3.426,6.701-7.954,12.733-11.832,19.162c-4.463,7.041-9.159,13.944-13.303,21.172c-3.797,7.715-4.149,17.098-0.428,24.832
				c2.41,5.354,6.227,9.924,10.49,13.879c-0.99-5.277-1.059-10.826,0.891-15.891c3.426-10.197,10.158-18.789,15.687-27.898
				c6.1-9.6,12.436-19.066,18.122-28.926c4.603-8.784,6.898-19.204,4.38-28.883c-0.238-1.006-0.543-1.996-0.896-2.965
				C170.152-563.014,162.973-569.947,154.818-575.232z"/>
		</g>
	</g>
</g>
<g>
	<path d="M47.393,160.736v-2.447c-1.045,1.869-2.942,2.639-4.84,2.666c-3.631,0-6.135-2.227-6.135-5.996v-7.836h1.348v7.809
		c0,3.078,1.898,4.73,4.842,4.705c2.806-0.029,4.759-2.148,4.759-4.951v-7.562h1.348v13.612H47.393L47.393,160.736z"/>
	<path d="M53.578,147.148v2.42c1.045-1.871,2.945-2.642,4.842-2.666c3.631,0,6.133,2.227,6.133,5.996v7.838h-1.348v-7.812
		c0-3.08-1.896-4.73-4.838-4.703c-2.809,0.029-4.76,2.146-4.76,4.951v7.564h-1.349v-13.588H53.578z"/>
	<path d="M69.859,142.721c0,1.43-2.172,1.43-2.172,0C67.688,141.289,69.859,141.289,69.859,142.721z M68.074,147.092v13.645h1.348
		v-13.645H68.074z"/>
	<path d="M86.305,141.482v19.254h-1.32v-3c-1.127,2.063-3.354,3.219-5.666,3.219c-3.797,0-6.795-2.502-6.795-7.012
		c0-4.484,3.027-7.017,6.822-7.017c2.338,0,4.537,0.99,5.639,3.191v-8.638h1.32V141.482z M73.844,153.943
		c0,3.768,2.504,5.692,5.559,5.692c3.189,0,5.556-2.338,5.556-5.723c0-3.386-2.422-5.692-5.556-5.692
		C76.348,148.221,73.844,150.119,73.844,153.943z"/>
	<path d="M89.547,153.967c0-4.316,3.082-7.064,6.906-7.064c3.822,0,6.902,2.748,6.902,7.064c0,4.322-3.08,6.961-6.902,6.961
		C92.629,160.928,89.547,158.289,89.547,153.967z M102.035,153.967c0-3.52-2.502-5.801-5.582-5.801
		c-3.082,0-5.584,2.281-5.584,5.801c0,3.521,2.502,5.641,5.584,5.641C99.533,159.607,102.035,157.488,102.035,153.967z"/>
	<path d="M105.828,153.967c0-4.316,3.08-7.064,6.902-7.064c3.824,0,6.906,2.748,6.906,7.064c0,4.322-3.082,6.961-6.906,6.961
		C108.908,160.928,105.828,158.289,105.828,153.967z M118.314,153.967c0-3.52-2.502-5.801-5.584-5.801
		c-3.08,0-5.582,2.281-5.582,5.801c0,3.521,2.502,5.641,5.582,5.641C115.812,159.607,118.314,157.488,118.314,153.967z"/>
</g>
</svg>
